HIERARCHY
ROOT hip
{
  OFFSET 5.70873 43.8894 -1.52928
  CHANNELS 6 Xposition Yposition Zposition Zrotation Xrotation Yrotation
  JOINT abdomen
  {
    OFFSET 0 5.99393 0.287273
    CHANNELS 6 Xposition Yposition Zposition Zrotation Xrotation Yrotation
    JOINT chest
    {
      OFFSET 0 6.65865 -0.856112
      CHANNELS 6 Xposition Yposition Zposition Zrotation Xrotation Yrotation
      JOINT neck
      {
        OFFSET 0 8.65624 -1.42685
        CHANNELS 6 Xposition Yposition Zposition Zrotation Xrotation Yrotation
        JOINT head
        {
          OFFSET 0 3.80999 -0.190247
          CHANNELS 6 Xposition Yposition Zposition Zrotation Xrotation Yrotation
          End Site
          {
            OFFSET 0 0 0
          }
        }
      }
      JOINT rCollar
      {
        OFFSET -1.4963 7.5744 -1.52136
        CHANNELS 6 Xposition Yposition Zposition Zrotation Xrotation Yrotation
        JOINT rShldr
        {
          OFFSET -5.47506 -0.905672 0.485692
          CHANNELS 6 Xposition Yposition Zposition Zrotation Xrotation Yrotation
          JOINT rForeArm
          {
            OFFSET -11.3069 -0.201091 0.618544
            CHANNELS 6 Xposition Yposition Zposition Zrotation Xrotation Yrotation
            JOINT rHand
            {
              OFFSET -9.61414 -0.254739 3.48553
              CHANNELS 6 Xposition Yposition Zposition Zrotation Xrotation Yrotation
              JOINT rThumb1
              {
                OFFSET 0.176263 -0.07068 1.26622
                CHANNELS 6 Xposition Yposition Zposition Zrotation Xrotation Yrotation
                JOINT rThumb2
                {
                  OFFSET -1.04683 -0.546484 1.82182
                  CHANNELS 6 Xposition Yposition Zposition Zrotation Xrotation Yrotation
                  JOINT rThumb3
                  {
                    OFFSET -0.993472 -0.621916 0.655506
                    CHANNELS 6 Xposition Yposition Zposition Zrotation Xrotation Yrotation
                    End Site
                    {
                      OFFSET -0.996134 -0.66263 0.644615
                    }
                  }
                }
              }
              JOINT rIndex1
              {
                OFFSET -2.64253 0.566363 2.4162
                CHANNELS 6 Xposition Yposition Zposition Zrotation Xrotation Yrotation
                JOINT rIndex2
                {
                  OFFSET -1.39394 -0.635138 0.899356
                  CHANNELS 6 Xposition Yposition Zposition Zrotation Xrotation Yrotation
                  JOINT rIndex3
                  {
                    OFFSET -0.622395 -0.856016 0.402182
                    CHANNELS 6 Xposition Yposition Zposition Zrotation Xrotation Yrotation
                    End Site
                    {
                      OFFSET -0.472476 -0.801802 0.34216
                    }
                  }
                }
              }
              JOINT rMid1
              {
                OFFSET -3.20814 0.514427 1.52547
                CHANNELS 6 Xposition Yposition Zposition Zrotation Xrotation Yrotation
                JOINT rMid2
                {
                  OFFSET -1.56545 -0.497974 0.68919
                  CHANNELS 6 Xposition Yposition Zposition Zrotation Xrotation Yrotation
                  JOINT rMid3
                  {
                    OFFSET -0.679943 -1.17582 0.444246
                    CHANNELS 6 Xposition Yposition Zposition Zrotation Xrotation Yrotation
                    End Site
                    {
                      OFFSET -0.343874 -0.941341 0.267611
                    }
                  }
                }
              }
              JOINT rRing1
              {
                OFFSET -3.47877 0.200518 0.597719
                CHANNELS 6 Xposition Yposition Zposition Zrotation Xrotation Yrotation
                JOINT rRing2
                {
                  OFFSET -1.28208 -0.53155 0.44672
                  CHANNELS 6 Xposition Yposition Zposition Zrotation Xrotation Yrotation
                  JOINT rRing3
                  {
                    OFFSET -0.710288 -0.970167 0.4032
                    CHANNELS 6 Xposition Yposition Zposition Zrotation Xrotation Yrotation
                    End Site
                    {
                      OFFSET -0.403228 -0.950952 0.378354
                    }
                  }
                }
              }
              JOINT rPinky1
              {
                OFFSET -3.42483 -0.278904 -0.240415
                CHANNELS 6 Xposition Yposition Zposition Zrotation Xrotation Yrotation
                JOINT rPinky2
                {
                  OFFSET -1.05787 -0.635999 0.156459
                  CHANNELS 6 Xposition Yposition Zposition Zrotation Xrotation Yrotation
                  JOINT rPinky3
                  {
                    OFFSET -0.42815 -0.754232 0.287187
                    CHANNELS 6 Xposition Yposition Zposition Zrotation Xrotation Yrotation
                    End Site
                    {
                      OFFSET -0.235717 -0.725605 0.279416
                    }
                  }
                }
              }
            }
          }
        }
      }
      JOINT lCollar
      {
        OFFSET 1.4963 7.5744 -1.52136
        CHANNELS 6 Xposition Yposition Zposition Zrotation Xrotation Yrotation
        JOINT lShldr
        {
          OFFSET 5.47506 -0.905672 0.485692
          CHANNELS 6 Xposition Yposition Zposition Zrotation Xrotation Yrotation
          JOINT lForeArm
          {
            OFFSET 11.3069 -0.201091 0.618544
            CHANNELS 6 Xposition Yposition Zposition Zrotation Xrotation Yrotation
            JOINT lHand
            {
              OFFSET 9.61414 -0.254739 3.48553
              CHANNELS 6 Xposition Yposition Zposition Zrotation Xrotation Yrotation
              JOINT lThumb1
              {
                OFFSET -0.176263 -0.07068 1.26622
                CHANNELS 6 Xposition Yposition Zposition Zrotation Xrotation Yrotation
                JOINT lThumb2
                {
                  OFFSET 1.04683 -0.546484 1.82182
                  CHANNELS 6 Xposition Yposition Zposition Zrotation Xrotation Yrotation
                  JOINT lThumb3
                  {
                    OFFSET 0.993472 -0.621916 0.655506
                    CHANNELS 6 Xposition Yposition Zposition Zrotation Xrotation Yrotation
                    End Site
                    {
                      OFFSET 0.996134 -0.66263 0.644615
                    }
                  }
                }
              }
              JOINT lIndex1
              {
                OFFSET 2.64253 0.566363 2.4162
                CHANNELS 6 Xposition Yposition Zposition Zrotation Xrotation Yrotation
                JOINT lIndex2
                {
                  OFFSET 1.39394 -0.635138 0.899356
                  CHANNELS 6 Xposition Yposition Zposition Zrotation Xrotation Yrotation
                  JOINT lIndex3
                  {
                    OFFSET 0.622395 -0.856016 0.402182
                    CHANNELS 6 Xposition Yposition Zposition Zrotation Xrotation Yrotation
                    End Site
                    {
                      OFFSET 0.472476 -0.801802 0.34216
                    }
                  }
                }
              }
              JOINT lMid1
              {
                OFFSET 3.20814 0.514427 1.52547
                CHANNELS 6 Xposition Yposition Zposition Zrotation Xrotation Yrotation
                JOINT lMid2
                {
                  OFFSET 1.56545 -0.497974 0.68919
                  CHANNELS 6 Xposition Yposition Zposition Zrotation Xrotation Yrotation
                  JOINT lMid3
                  {
                    OFFSET 0.679943 -1.17582 0.444246
                    CHANNELS 6 Xposition Yposition Zposition Zrotation Xrotation Yrotation
                    End Site
                    {
                      OFFSET 0.343874 -0.941341 0.267611
                    }
                  }
                }
              }
              JOINT lRing1
              {
                OFFSET 3.47877 0.200518 0.597719
                CHANNELS 6 Xposition Yposition Zposition Zrotation Xrotation Yrotation
                JOINT lRing2
                {
                  OFFSET 1.28208 -0.53155 0.44672
                  CHANNELS 6 Xposition Yposition Zposition Zrotation Xrotation Yrotation
                  JOINT lRing3
                  {
                    OFFSET 0.710288 -0.970167 0.4032
                    CHANNELS 6 Xposition Yposition Zposition Zrotation Xrotation Yrotation
                    End Site
                    {
                      OFFSET 0.403228 -0.950952 0.378354
                    }
                  }
                }
              }
              JOINT lPinky1
              {
                OFFSET 3.42483 -0.278904 -0.240415
                CHANNELS 6 Xposition Yposition Zposition Zrotation Xrotation Yrotation
                JOINT lPinky2
                {
                  OFFSET 1.05787 -0.635999 0.156459
                  CHANNELS 6 Xposition Yposition Zposition Zrotation Xrotation Yrotation
                  JOINT lPinky3
                  {
                    OFFSET 0.42815 -0.754232 0.287187
                    CHANNELS 6 Xposition Yposition Zposition Zrotation Xrotation Yrotation
                    End Site
                    {
                      OFFSET 0.235717 -0.725605 0.279416
                    }
                  }
                }
              }
            }
          }
        }
      }
    }
  }
  JOINT rThigh
  {
    OFFSET -4.17848 -1.02486 0.046356
    CHANNELS 6 Xposition Yposition Zposition Zrotation Xrotation Yrotation
    JOINT rShin
    {
      OFFSET 1.27155 -17.465 -0.237699
      CHANNELS 6 Xposition Yposition Zposition Zrotation Xrotation Yrotation
      JOINT rFoot
      {
        OFFSET 0.529163 -17.3815 -1.19582
        CHANNELS 6 Xposition Yposition Zposition Zrotation Xrotation Yrotation
        JOINT rToe
        {
          OFFSET -0.711591 -4.4863 4.0596
          CHANNELS 6 Xposition Yposition Zposition Zrotation Xrotation Yrotation
          End Site
          {
            OFFSET -0.869915 -1.10655 1.99006
          }
        }
      }
    }
  }
  JOINT lThigh
  {
    OFFSET 4.17848 -1.02486 0.046356
    CHANNELS 6 Xposition Yposition Zposition Zrotation Xrotation Yrotation
    JOINT lShin
    {
      OFFSET -1.27155 -17.465 -0.237699
      CHANNELS 6 Xposition Yposition Zposition Zrotation Xrotation Yrotation
      JOINT lFoot
      {
        OFFSET -0.529163 -17.3815 -1.19582
        CHANNELS 6 Xposition Yposition Zposition Zrotation Xrotation Yrotation
        JOINT lToe
        {
          OFFSET 0.711591 -4.4863 4.0596
          CHANNELS 6 Xposition Yposition Zposition Zrotation Xrotation Yrotation
          End Site
          {
            OFFSET 0.869915 -1.10655 1.99006
          }
        }
      }
    }
  }
}
MOTION
Frames:	4
Frame Time:	0.0333333
128.202 43.2166 30.8946 9.01041 -3.92244 16.6537 1.42109e-014 5.99393 0.287273 -4.21886 3.52687 4.1684 1.42109e-014 6.65865 -0.856112 -8.70642 6.72731 8.60826 1.42109e-014 8.65624 -1.42685 -0.157038 -6.8252 -10.9915 0 3.80999 -0.190247 -5.63803 -2.46093 -16.7204 -1.4963 7.5744 -1.52136 -1.64226 -0.0904132 3.90305 -5.47506 -0.905672 0.485692 86.3525 -4.97121 -0.514034 -11.3069 -0.201091 0.618544 12.8625 -24.2626 21.3369 -9.61414 -0.254739 3.48553 -7.17875 6.83487 0.0470101 0.176263 -0.07068 1.26622 -0.882906 0.974131 -2.69645 -1.04683 -0.546484 1.82182 -0.882865 0.973719 -2.69648 -0.993472 -0.621916 0.655506 -0.882603 0.973518 -2.69588 -2.64253 0.566363 2.4162 5.39129 1.40028 -0.859858 -1.39394 -0.635138 0.899356 5.39055 1.39413 -0.858004 -0.622395 -0.856016 0.402182 5.3894 1.39382 -0.858073 -3.20814 0.514427 1.52547 5.3382 1.59577 -0.839678 -1.56545 -0.497974 0.68919 5.33937 1.59933 -0.832938 -0.679943 -1.17582 0.444246 5.33992 1.59897 -0.833291 -3.47877 0.200518 0.597719 5.25489 1.76006 -1.03441 -1.28208 -0.53155 0.44672 5.25449 1.76672 -1.0383 -0.710288 -0.970167 0.4032 5.25493 1.76655 -1.03865 -3.42483 -0.278904 -0.240415 5.21856 1.90334 -0.961626 -1.05787 -0.635999 0.156459 5.21963 1.90728 -0.966718 -0.42815 -0.754232 0.287187 5.21866 1.90877 -0.964509 1.4963 7.5744 -1.52136 5.9932 0.417055 4.92821 5.47506 -0.905672 0.485692 -73.8371 22.9164 46.0269 11.3069 -0.201091 0.618544 -33.431 -3.56927 -88.0263 9.61414 -0.254739 3.48553 3.3075 36.1493 -20.6109 -0.176263 -0.07068 1.26622 -2.05483 -5.93818 -6.0842 1.04683 -0.546484 1.82182 -6.73233 -1.26547 -11.8114 0.993472 -0.621916 0.655506 -5.45474 -1.13457 -9.59108 2.64253 0.566363 2.4162 11.4944 -0.221691 -4.8993 1.39394 -0.635138 0.899356 12.4708 -4.75256 -4.55988 0.622395 -0.856016 0.402182 7.40941 -2.6893 -2.81864 3.20814 0.514427 1.52547 13.8633 0.805144 -3.04614 1.56545 -0.497974 0.68919 7.65111 -3.13909 -2.90587 0.679943 -1.17582 0.444246 15.2096 -6.65256 -5.39198 3.47877 0.200518 0.597719 15.4133 -2.64518 -2.16336 1.28208 -0.53155 0.44672 7.6679 -3.48732 -3.31731 0.710288 -0.970167 0.4032 14.9739 -7.27538 -6.08925 3.42483 -0.278904 -0.240415 12.5479 -2.96792 3.16009 1.05787 -0.635999 0.156459 13.8398 -7.12181 -5.49566 0.42815 -0.754232 0.287187 14.6578 -7.59074 -5.77179 -4.17848 -1.02486 0.046356 -26.4866 -6.99154 -5.14788 1.27155 -17.465 -0.237699 2.72727 22.3064 0.521202 0.529163 -17.3815 -1.19582 16.4222 -7.55575 -4.64809 -0.711591 -4.4863 4.0596 -0.0478039 -0.315014 0.00350466 4.17848 -1.02486 0.046356 -12.3563 -1.40214 -10.6939 -1.27155 -17.465 -0.237699 0.151691 15.1529 -0.541132 -0.529163 -17.3815 -1.19582 6.1314 -6.95931 -0.535829 0.711591 -4.4863 4.0596 -1.00222 -0.897931 0.0449251 
128.167 43.2148 30.9074 8.99313 -4.06029 16.643 0 5.99393 0.287273 -4.18363 3.62886 4.09576 0 6.65865 -0.856112 -8.6406 6.93903 8.46981 0 8.65624 -1.42685 -0.0063572 -7.03612 -10.9603 -1.42109e-014 3.80999 -0.190247 -5.50074 -2.55719 -16.7639 -1.4963 7.5744 -1.52136 -1.59772 -0.0913596 4.15186 -5.47506 -0.905672 0.485692 86.2314 -4.76271 -0.204331 -11.3069 -0.201091 0.618544 13.0291 -24.1526 21.7893 -9.61414 -0.254739 3.48553 -7.22543 7.08633 0.145468 0.176263 -0.07068 1.26622 -0.88278 0.973835 -2.69654 -1.04683 -0.546484 1.82182 -0.882898 0.97374 -2.69649 -0.993472 -0.621916 0.655506 -0.882616 0.973529 -2.69588 -2.64253 0.566363 2.4162 5.3913 1.40031 -0.859858 -1.39394 -0.635138 0.899356 5.39058 1.39418 -0.857995 -0.622395 -0.856016 0.402182 5.3894 1.3939 -0.85805 -3.20814 0.514427 1.52547 5.33819 1.59578 -0.839695 -1.56545 -0.497974 0.68919 5.33949 1.59924 -0.832994 -0.679943 -1.17582 0.444246 5.33991 1.59904 -0.833238 -3.47877 0.200518 0.597719 5.25488 1.76009 -1.03442 -1.28208 -0.53155 0.44672 5.2545 1.76677 -1.03828 -0.710288 -0.970167 0.4032 5.25492 1.76662 -1.03859 -3.42483 -0.278904 -0.240415 5.21855 1.90337 -0.961639 -1.05787 -0.635999 0.156459 5.21962 1.90733 -0.966685 -0.42815 -0.754232 0.287187 5.21868 1.90879 -0.96449 1.4963 7.5744 -1.52136 5.45346 0.337596 3.75419 5.47506 -0.905672 0.485692 -73.9271 24.3259 45.2029 11.3069 -0.201091 0.618544 -33.4563 -3.8208 -85.682 9.61414 -0.254739 3.48553 5.69558 35.452 -24.4285 -0.176263 -0.07068 1.26622 0.00402178 -8.95939 -5.43652 1.04683 -0.546484 1.82182 -6.38039 -1.23448 -11.2002 0.993472 -0.621916 0.655506 -4.79256 -1.04712 -8.43747 2.64253 0.566363 2.4162 10.8896 0.314229 -3.87321 1.39394 -0.635138 0.899356 12.5159 -4.77174 -4.57468 0.622395 -0.856016 0.402182 7.47224 -2.71384 -2.8412 3.20814 0.514427 1.52547 13.7133 1.48958 -2.65087 1.56545 -0.497974 0.68919 7.66339 -3.14446 -2.91024 0.679943 -1.17582 0.444246 14.396 -6.25657 -5.14475 3.47877 0.200518 0.597719 15.0718 -2.08951 -2.22905 1.28208 -0.53155 0.44672 7.67968 -3.49306 -3.32208 0.710288 -0.970167 0.4032 14.1912 -6.84973 -5.81261 3.42483 -0.278904 -0.240415 12.4145 -2.53403 2.37519 1.05787 -0.635999 0.156459 13.3373 -6.83608 -5.32289 0.42815 -0.754232 0.287187 13.8819 -7.14579 -5.50967 -4.17848 -1.02486 0.046356 -26.353 -6.93486 -5.02852 1.27155 -17.465 -0.237699 2.74519 22.4186 0.51197 0.529163 -17.3815 -1.19582 16.3486 -7.64053 -4.72122 -0.711591 -4.4863 4.0596 -0.0371782 -0.236957 0.00147312 4.17848 -1.02486 0.046356 -12.2601 -1.3549 -10.6746 -1.27155 -17.465 -0.237699 0.15393 15.3278 -0.554291 -0.529163 -17.3815 -1.19582 6.07834 -7.06597 -0.5076 0.711591 -4.4863 4.0596 -1.00227 -0.897954 0.0450096 
128.129 43.2141 30.9232 8.96063 -4.25133 16.5679 0 5.99393 0.287273 -4.13412 3.7597 4.04447 1.42109e-014 6.65865 -0.856112 -8.54969 7.2076 8.37558 -1.42109e-014 8.65624 -1.42685 0.125832 -7.30804 -11.1213 0 3.80999 -0.190247 -5.25584 -2.61919 -16.6571 -1.4963 7.5744 -1.52136 -1.48645 -0.0858911 4.37677 -5.47506 -0.905672 0.485692 86.0107 -4.37452 0.0491852 -11.3069 -0.201091 0.618544 13.2589 -24.4399 22.371 -9.61414 -0.254739 3.48553 -7.14381 7.50455 0.265678 0.176263 -0.07068 1.26622 -0.882761 0.973942 -2.69654 -1.04683 -0.546484 1.82182 -0.882922 0.973763 -2.69646 -0.993472 -0.621916 0.655506 -0.882632 0.973553 -2.69587 -2.64253 0.566363 2.4162 5.39128 1.40032 -0.859861 -1.39394 -0.635138 0.899356 5.39051 1.39428 -0.857968 -0.622395 -0.856016 0.402182 5.38942 1.39375 -0.858094 -3.20814 0.514427 1.52547 5.33817 1.59581 -0.839683 -1.56545 -0.497974 0.68919 5.33945 1.59925 -0.832991 -0.679943 -1.17582 0.444246 5.33991 1.59889 -0.833346 -3.47877 0.200518 0.597719 5.25489 1.76009 -1.03442 -1.28208 -0.53155 0.44672 5.25448 1.76685 -1.03823 -0.710288 -0.970167 0.4032 5.25492 1.76648 -1.03872 -3.42483 -0.278904 -0.240415 5.21854 1.90344 -0.961627 -1.05787 -0.635999 0.156459 5.21956 1.90743 -0.966625 -0.42815 -0.754232 0.287187 5.21866 1.90879 -0.964482 1.4963 7.5744 -1.52136 4.70104 0.283026 2.65127 5.47506 -0.905672 0.485692 -73.904 25.8322 45.1516 11.3069 -0.201091 0.618544 -33.1991 -3.7719 -84.3824 9.61414 -0.254739 3.48553 7.38381 34.0306 -27.5058 -0.176263 -0.07068 1.26622 2.40885 -12.0738 -4.53405 1.04683 -0.546484 1.82182 -5.97893 -1.19454 -10.5025 0.993472 -0.621916 0.655506 -4.03914 -0.931084 -7.12218 2.64253 0.566363 2.4162 10.1875 0.911079 -2.69655 1.39394 -0.635138 0.899356 12.5511 -4.78662 -4.58616 0.622395 -0.856016 0.402182 7.52116 -2.73299 -2.85876 3.20814 0.514427 1.52547 13.5051 2.22758 -2.22402 1.56545 -0.497974 0.68919 7.67328 -3.14879 -2.91373 0.679943 -1.17582 0.444246 13.4694 -5.81052 -4.85698 3.47877 0.200518 0.597719 14.675 -1.4653 -2.30635 1.28208 -0.53155 0.44672 7.68923 -3.49771 -3.32593 0.710288 -0.970167 0.4032 13.2986 -6.36986 -5.49095 3.42483 -0.278904 -0.240415 12.2634 -2.03278 1.48405 1.05787 -0.635999 0.156459 12.7635 -6.51204 -5.12286 0.42815 -0.754232 0.287187 12.9953 -6.64264 -5.20367 -4.17848 -1.02486 0.046356 -26.2206 -6.84587 -5.09993 1.27155 -17.465 -0.237699 2.76131 22.5304 0.500018 0.529163 -17.3815 -1.19582 16.2474 -7.65361 -4.58328 -0.711591 -4.4863 4.0596 -0.0356481 -0.226926 0.00122593 4.17848 -1.02486 0.046356 -12.1271 -1.25899 -10.5711 -1.27155 -17.465 -0.237699 0.156103 15.5053 -0.568238 -0.529163 -17.3815 -1.19582 6.02569 -7.19037 -0.426164 0.711591 -4.4863 4.0596 -1.00223 -0.89796 0.0448048 
128.095 43.2062 30.9492 8.92696 -4.36207 16.319 0 5.99393 0.287273 -4.11392 3.82307 3.96387 0 6.65865 -0.856112 -8.50979 7.34171 8.21845 0 8.65624 -1.42685 0.297947 -7.51386 -11.0395 1.42109e-014 3.80999 -0.190247 -4.86711 -2.63521 -16.6597 -1.4963 7.5744 -1.52136 -1.44062 -0.0814849 4.36364 -5.47506 -0.905672 0.485692 85.9837 -4.31053 0.605978 -11.3069 -0.201091 0.618544 13.3721 -23.8921 22.7296 -9.61414 -0.254739 3.48553 -7.3758 8.18645 0.219579 0.176263 -0.07068 1.26622 -0.882887 0.974135 -2.69645 -1.04683 -0.546484 1.82182 -0.882963 0.973818 -2.69641 -0.993472 -0.621916 0.655506 -0.882634 0.97359 -2.69584 -2.64253 0.566363 2.4162 5.39124 1.40039 -0.859864 -1.39394 -0.635138 0.899356 5.39058 1.39409 -0.857993 -0.622395 -0.856016 0.402182 5.38941 1.39377 -0.85809 -3.20814 0.514427 1.52547 5.33815 1.59591 -0.839692 -1.56545 -0.497974 0.68919 5.33945 1.59928 -0.832973 -0.679943 -1.17582 0.444246 5.33992 1.59892 -0.833324 -3.47877 0.200518 0.597719 5.25484 1.76015 -1.03441 -1.28208 -0.53155 0.44672 5.25451 1.76671 -1.03828 -0.710288 -0.970167 0.4032 5.2549 1.76649 -1.03872 -3.42483 -0.278904 -0.240415 5.21858 1.90329 -0.961631 -1.05787 -0.635999 0.156459 5.21968 1.90726 -0.966722 -0.42815 -0.754232 0.287187 5.21864 1.90881 -0.96445 1.4963 7.5744 -1.52136 4.18487 0.229899 2.12439 5.47506 -0.905672 0.485692 -73.3705 26.1057 43.4874 11.3069 -0.201091 0.618544 -33.235 -2.56637 -81.768 9.61414 -0.254739 3.48553 9.17415 32.7363 -29.8052 -0.176263 -0.07068 1.26622 5.07609 -15.1109 -3.42191 1.04683 -0.546484 1.82182 -5.55275 -1.14676 -9.76118 0.993472 -0.621916 0.655506 -3.24117 -0.788682 -5.72546 2.64253 0.566363 2.4162 9.42954 1.53693 -1.43949 1.39394 -0.635138 0.899356 12.5775 -4.79788 -4.59484 0.622395 -0.856016 0.402182 7.55806 -2.74741 -2.87201 3.20814 0.514427 1.52547 13.2567 2.98395 -1.78663 1.56545 -0.497974 0.68919 7.68056 -3.15201 -2.91635 0.679943 -1.17582 0.444246 12.4814 -5.34088 -4.54297 3.47877 0.200518 0.597719 14.2482 -0.808926 -2.39001 1.28208 -0.53155 0.44672 7.69631 -3.50116 -3.32881 0.710288 -0.970167 0.4032 12.3465 -5.86461 -5.14063 3.42483 -0.278904 -0.240415 12.1101 -1.49573 0.53854 1.05787 -0.635999 0.156459 12.1523 -6.16957 -4.9067 0.42815 -0.754232 0.287187 12.0504 -6.11272 -4.87 -4.17848 -1.02486 0.046356 -26.1435 -6.96294 -5.0943 1.27155 -17.465 -0.237699 2.79849 22.7503 0.498779 0.529163 -17.3815 -1.19582 16.1563 -7.69871 -4.4143 -0.711591 -4.4863 4.0596 -0.0581879 -0.391439 0.00549017 4.17848 -1.02486 0.046356 -12.0077 -1.28769 -10.2755 -1.27155 -17.465 -0.237699 0.15985 15.7615 -0.584805 -0.529163 -17.3815 -1.19582 5.97125 -7.39026 -0.482128 0.711591 -4.4863 4.0596 -1.00226 -0.897948 0.0448529 
